# xmcd
#
# Track frame offsets: 
#        150
#        7206
#        18880
#        28923
#        35082
#        74530
#        85813
#        116477
#        130518
#        139645
#        177364
#        198929
#        211859
#        260216
#        271323
#        282167
#        299417
#        310992
#        323321
#
# Disc length: 4624 seconds
#
# Revision: 0
# Processed by: cddbd v1.5.2PL0 Copyright (c) Steve Scherf et al.
# Submitted via: ExactAudioCopy v0.95b3
#
DISCID=19120e13
DTITLE=Jimi Hendrix and Curtis Knight  - The Complete Recordings Vol. 4 
DTITLE=Studio  ATM 104
DYEAR=1900
DGENRE=
TTITLE0=Gloomy Monday
TTITLE1=Gloomy Monday
TTITLE2=Gloomy Monday
TTITLE3=Hush Now
TTITLE4=Love Love
TTITLE5=Ballad of Jimi
TTITLE6=Hush Now
TTITLE7=Gloomy Monday
TTITLE8=Happy Birthday
TTITLE9=Day Tripper - Future Trip -  Flashing
TTITLE10=Odd Ball
TTITLE11=No Business
TTITLE12=Get That Feeling
TTITLE13=No Business
TTITLE14=Ballad of Jimi
TTITLE15=Hush Now
TTITLE16=Flashing
TTITLE17=Day Tripper
TTITLE18=Love Love
EXTD=
EXTT0=
EXTT1=
EXTT2=
EXTT3=
EXTT4=
EXTT5=
EXTT6=
EXTT7=
EXTT8=
EXTT9=
EXTT10=
EXTT11=
EXTT12=
EXTT13=
EXTT14=
EXTT15=
EXTT16=
EXTT17=
EXTT18=
PLAYORDER=
